<svg width="57" height="51" viewBox="0 0 57 51" fill="none" xmlns="http://www.w3.org/2000/svg">
<path d="M50.9317 3.13983H45.421V1.08419C45.421 0.483467 44.9215 -0.00415039 44.3063 -0.00415039C43.691 -0.00415039 43.1916 0.483467 43.1916 1.08419V3.13983H24.3679V1.08419C24.3679 0.483467 23.8685 -0.00415039 23.2532 -0.00415039C22.638 -0.00415039 22.1385 0.483467 22.1385 1.08419V3.13983H16.2562C12.9063 3.14361 10.1918 5.79354 10.1879 9.06424V27.2014C10.1879 27.8021 10.6874 28.2894 11.3026 28.2894C11.9179 28.2894 12.4169 27.8021 12.4169 27.2014V20.0676H54.771V44.1292C54.7683 46.1984 53.0511 47.875 50.9317 47.8773H16.2562C14.1368 47.875 12.4197 46.1984 12.4169 44.1292V37.8416C12.4169 37.2409 11.9179 36.7533 11.3026 36.7533C10.6874 36.7533 10.1879 37.2409 10.1879 37.8416V44.1292C10.1918 47.3999 12.9063 50.0502 16.2562 50.054H50.9317C54.2816 50.0502 56.9961 47.3999 57 44.1292V9.06424C56.9961 5.79354 54.2816 3.14361 50.9317 3.13983ZM12.4169 17.8909V9.06424C12.4197 6.99499 14.1368 5.31841 16.2562 5.31614H22.1385V8.27097C20.4601 8.80587 19.4291 10.4526 19.7065 12.1553C19.9839 13.8576 21.4876 15.1105 23.2532 15.1105C25.0189 15.1105 26.5226 13.8576 26.8 12.1553C27.0774 10.4526 26.0464 8.80587 24.3679 8.27097V5.31614H43.1916V8.27097C41.5131 8.80587 40.4821 10.4526 40.7595 12.1553C41.0369 13.8576 42.5406 15.1105 44.3063 15.1105C46.0719 15.1105 47.5756 13.8576 47.853 12.1553C48.1304 10.4526 47.0994 8.80587 45.421 8.27097V5.31614H50.9317C53.0511 5.31841 54.7683 6.99499 54.771 9.06424V17.8909H12.4169ZM23.2532 10.2736C24.0057 10.2736 24.6155 10.8691 24.6155 11.6037C24.6155 12.338 24.0057 12.9338 23.2532 12.9338C22.5012 12.9338 21.8909 12.338 21.8909 11.6037C21.8921 10.8694 22.5016 10.2744 23.2532 10.2736ZM44.3063 10.2736C45.0587 10.2736 45.6685 10.8691 45.6685 11.6037C45.6685 12.338 45.0587 12.9338 44.3063 12.9338C43.5542 12.9338 42.944 12.338 42.944 11.6037C42.9451 10.8694 43.5546 10.2744 44.3063 10.2736Z" fill="#BEAD8E"/>
<path d="M7.94582 37.435C8.38093 37.8602 8.38093 38.5487 7.94582 38.9739C7.51033 39.3991 6.80516 39.3991 6.36967 38.9739L0.548962 33.2908C0.113852 32.866 0.113852 32.1772 0.548962 31.7523L6.36967 26.0693C6.80516 25.6441 7.51033 25.6441 7.94582 26.0693C8.38093 26.4945 8.38093 27.183 7.94582 27.6082L4.0279 31.4334H25.9814C26.5966 31.4334 27.0961 31.9207 27.0961 32.5214C27.0961 33.1225 26.5966 33.6097 25.9814 33.6097H4.0279L7.94582 37.435Z" fill="#BEAD8E"/>
</svg>
