<svg width="144" height="106" viewBox="0 0 144 106" fill="none" xmlns="http://www.w3.org/2000/svg">
<g clip-path="url(#clip0_7_180)">
<path d="M127.046 47.7235C122.146 45.2711 112.959 45.2427 112.571 45.2427C111.406 45.2427 110.461 46.1882 110.461 47.3544C110.461 48.5206 111.406 49.4661 112.571 49.4661C114.941 49.4664 121.824 49.8319 125.16 51.5012C125.463 51.653 125.784 51.7245 126.101 51.7245C126.875 51.7245 127.62 51.2965 127.99 50.5569C128.511 49.5137 128.088 48.2453 127.046 47.7235Z" fill="#F8F8F8"/>
<path d="M137.563 77.789L128.851 75.2971C128.475 75.1896 128.212 74.841 128.212 74.4494V71.5383C128.921 71.0467 129.597 70.4965 130.229 69.8824C133.292 66.9069 134.979 62.9157 134.979 58.6439V54.6268L135.821 52.9405C136.745 51.0892 137.234 49.0167 137.234 46.9472V36.0648C137.234 34.8986 136.29 33.9531 135.125 33.9531H114.826C107.445 33.9531 101.44 39.965 101.44 47.3543V47.4802C101.44 49.2011 101.846 50.9245 102.615 52.4636L103.695 54.6265V58.0757C103.695 63.5419 106.386 68.4464 110.461 71.3978L110.462 74.4488C110.462 74.9193 110.462 75.1141 108.72 75.6125L104.469 76.8283L92.1727 72.352C92.2168 71.7711 92.0211 71.1804 91.5978 70.7353L87.6684 66.6025V59.6648C88.0838 59.3221 88.4933 58.9702 88.8902 58.598C93.8472 53.9465 96.6901 47.3794 96.6901 40.5805V35.0399C98.1869 31.7791 98.9454 28.3286 98.9454 24.775V2.1965C98.9454 1.03026 98.001 0.0847778 96.8361 0.0847778H65.2604C54.1482 0.0847778 45.108 9.13532 45.108 20.2596V24.7756C45.108 28.3291 45.8665 31.7797 47.3633 35.0405V39.8076C47.3633 47.7015 50.8694 54.8132 56.385 59.5018V66.6028L52.4557 70.7355C52.0324 71.1807 51.8366 71.7714 51.8808 72.3523L38.9025 77.0766C37.962 77.419 37.0882 77.8827 36.2948 78.4444L34.2568 77.4243C40.3234 74.7808 42.2452 71.0627 42.3374 70.878C42.6344 70.2836 42.6344 69.5837 42.3374 68.9893C40.8167 65.9445 40.6325 60.3636 40.4845 55.8795C40.4353 54.3866 40.3886 52.9763 40.2995 51.7205C39.5803 41.5916 31.8887 33.9531 22.4077 33.9531C12.9268 33.9531 5.23491 41.5913 4.51603 51.7205C4.42687 52.9766 4.38019 54.3869 4.33097 55.88C4.18303 60.3639 3.99853 65.9442 2.47809 68.989C2.18109 69.5834 2.18109 70.2834 2.47809 70.8777C2.57034 71.0624 4.48819 74.7729 10.5668 77.4196L4.90613 80.2529C1.87987 81.7689 0 84.8139 0 88.2009V103.802C0 104.968 0.944437 105.914 2.10938 105.914C3.27431 105.914 4.21875 104.968 4.21875 103.802V88.2009C4.21875 86.4236 5.20509 84.8258 6.79275 84.0309L13.8417 80.5027L16.2937 82.8354C18.0082 84.4665 20.2075 85.2816 22.4077 85.2816C24.6074 85.2816 26.8079 84.4659 28.5218 82.8354L30.9735 80.503L33.2719 81.6534C32.1896 83.387 31.5754 85.4199 31.5754 87.5493V103.803C31.5754 104.969 32.5198 105.914 33.6847 105.914C34.8497 105.914 35.7941 104.969 35.7941 103.803V87.5493C35.7941 84.6504 37.6225 82.0369 40.3442 81.0461L54.0276 76.065L59.7237 84.6191C60.4519 85.7127 61.6188 86.4141 62.9252 86.5436C63.0709 86.558 63.2157 86.565 63.3603 86.565C64.5128 86.565 65.6168 86.1108 66.4419 85.285L69.9171 81.806V103.803C69.9171 104.969 70.8615 105.915 72.0264 105.915C73.1914 105.915 74.1358 104.969 74.1358 103.803V81.806L77.6109 85.285C78.4358 86.1111 79.5398 86.5653 80.6926 86.5653C80.8369 86.5653 80.982 86.5582 81.1274 86.5439C82.4341 86.4144 83.601 85.713 84.3292 84.6194L90.0256 76.0655L103.709 81.0466C106.43 82.0375 108.259 84.6509 108.259 87.5499V103.803C108.259 104.969 109.203 105.915 110.368 105.915C111.533 105.915 112.478 104.969 112.478 103.803V87.5499C112.478 84.6138 111.312 81.8601 109.358 79.8235L109.879 79.6746C110.404 79.5242 111.122 79.3184 111.842 78.9651L117.227 84.3567V103.803C117.227 104.969 118.172 105.915 119.337 105.915C120.502 105.915 121.446 104.969 121.446 103.803V84.3567L126.794 79.0025C127.079 79.1472 127.377 79.2694 127.692 79.3592L136.404 81.8511C138.392 82.4198 139.781 84.2632 139.781 86.3338V103.803C139.781 104.969 140.726 105.915 141.891 105.915C143.056 105.915 144 104.969 144 103.803V86.3338C144 82.3869 141.353 78.8733 137.563 77.789ZM13.5323 74.0591C9.58669 72.6378 7.60753 70.7429 6.76266 69.7081C7.33866 68.2006 7.71216 66.4741 7.965 64.6515C9.12825 67.4438 11.0765 69.8275 13.5323 71.5281V74.0591ZM25.6163 79.7743C23.8171 81.4856 20.9987 81.4853 19.2001 79.774L17.2384 77.9078C17.5694 77.2869 17.7514 76.583 17.7514 75.8456V73.5948C19.2229 74.0552 20.7872 74.3035 22.4083 74.3035C24.0275 74.3035 25.5909 74.054 27.065 73.5962L27.0647 75.8453C27.0647 76.583 27.2464 77.2872 27.5777 77.9084L25.6163 79.7743ZM22.4089 70.0801C16.11 70.0801 10.9859 64.95 10.9859 58.6444C10.9859 57.4782 10.0415 56.5327 8.87653 56.5327C8.75841 56.5327 8.64309 56.5448 8.53031 56.5637C8.5365 56.3821 8.54241 56.2002 8.54859 56.0202C8.59556 54.5682 8.64084 53.1967 8.72437 52.0204C8.99381 48.226 10.5083 44.7296 12.989 42.1747C15.4918 39.5967 18.837 38.1771 22.4083 38.1771C25.9796 38.1771 29.3245 39.5967 31.8277 42.1747C34.3083 44.7296 35.8228 48.226 36.0923 52.0204C36.1755 53.1965 36.2211 54.5677 36.2689 56.0194C36.2731 56.1441 36.2773 56.2706 36.2815 56.3961C33.9865 52.8563 30.4422 50.2477 25.8626 48.7745C21.6318 47.4137 17.993 47.4979 17.8394 47.5019C17.287 47.5174 16.7628 47.7488 16.3794 48.1469L12.5736 52.0984C11.765 52.938 11.7892 54.2749 12.6278 55.0843C13.4665 55.8938 14.8019 55.8693 15.6105 55.03L18.7774 51.7422C21.5047 51.8757 30.2788 52.8972 33.6912 60.4197C32.8326 65.9631 28.0732 70.0801 22.4089 70.0801ZM31.2832 74.0662L31.2834 71.5476C33.7373 69.8562 35.6884 67.477 36.8525 64.6637C37.1053 66.482 37.4785 68.2046 38.0534 69.7087C37.2133 70.7336 35.2249 72.6454 31.2832 74.0662ZM51.5821 39.8073V34.568C51.5821 34.2501 51.5104 33.9362 51.3723 33.6498C50.015 30.8359 49.3268 27.8502 49.3268 24.7756V20.2599C49.3268 11.4641 56.4747 4.3085 65.2604 4.3085H94.7267V24.7758C94.7267 27.8505 94.0385 30.8362 92.6812 33.6501C92.5431 33.9365 92.4713 34.2504 92.4713 34.5683V40.5811C92.4713 46.2999 90.1749 51.6042 86.0051 55.5171C85.4845 56.0053 84.9443 56.4632 84.3857 56.8897C84.3733 56.8982 84.3615 56.9075 84.3494 56.9162C80.4431 59.8853 75.6585 61.3283 70.6618 61.0042C59.9628 60.3107 51.5821 51 51.5821 39.8073ZM63.459 82.2982C63.4444 82.3128 63.4103 82.3475 63.3414 82.3401C63.2728 82.3334 63.2458 82.2931 63.2343 82.2757L56.6741 72.4244L58.7852 70.2037L68.7372 77.0138L63.459 82.2982ZM72.0267 74.1489L60.6037 66.3322V62.3903C63.5594 63.9899 66.8689 64.9903 70.3887 65.2183C70.9447 65.2544 71.4974 65.2721 72.0484 65.2721C76.0818 65.2721 79.9636 64.3069 83.4497 62.4748V66.3322L72.0267 74.1489ZM80.8192 82.2762C80.8076 82.2937 80.7806 82.334 80.712 82.3407C80.6431 82.3494 80.6093 82.3131 80.5944 82.2988L75.3162 77.0147L85.2682 70.2042L87.3796 72.4249L80.8192 82.2762ZM119.337 80.4945L114.55 75.7026C114.633 75.3228 114.681 74.9069 114.68 74.4482L114.68 73.5571C116.008 73.9935 117.408 74.2525 118.857 74.2959C119.02 74.301 119.181 74.3032 119.343 74.3032C120.944 74.3032 122.506 74.0611 123.994 73.599V74.4494C123.994 74.8706 124.046 75.2833 124.146 75.6801L119.337 80.4945ZM127.291 66.8517C125.056 69.0237 122.102 70.1707 118.984 70.0744C112.88 69.8911 107.914 64.5085 107.914 58.0762V54.1284C107.914 53.8004 107.837 53.4772 107.691 53.1841L106.388 50.5751C105.911 49.6192 105.658 48.5493 105.658 47.4805V47.3546C105.658 42.2938 109.771 38.1768 114.826 38.1768H133.015V46.9475C133.015 48.3648 132.681 49.7842 132.047 51.0521L130.983 53.1841C130.836 53.4775 130.76 53.8004 130.76 54.1284V58.6441C130.76 61.7638 129.528 64.6786 127.291 66.8517Z" fill="#F8F8F8"/>
<path d="M132.869 88.1429C131.704 88.1429 130.76 89.0884 130.76 90.2547V103.802C130.76 104.968 131.704 105.914 132.869 105.914C134.034 105.914 134.978 104.968 134.978 103.802V90.2547C134.978 89.0887 134.034 88.1429 132.869 88.1429Z" fill="#F8F8F8"/>
<path d="M11.131 90.9344C9.9661 90.9344 9.02167 91.8799 9.02167 93.0461V103.802C9.02167 104.968 9.9661 105.914 11.131 105.914C12.296 105.914 13.2404 104.968 13.2404 103.802V93.0461C13.2404 91.8802 12.296 90.9344 11.131 90.9344Z" fill="#F8F8F8"/>
<path d="M89.3059 25.5407C81.3279 17.5539 64.636 19.0808 57.8292 20.1079C55.6852 20.4314 54.1294 22.2478 54.1294 24.4268V29.2916C54.1294 30.4579 55.0738 31.4033 56.2387 31.4033C57.4037 31.4033 58.3481 30.4579 58.3481 29.2916V24.4265C58.3481 24.3547 58.3954 24.2933 58.4584 24.2838C61.1772 23.8735 66.5724 23.2406 72.1623 23.6136C78.7401 24.052 83.5045 25.7051 86.3229 28.5269C87.1467 29.3516 88.4824 29.3516 89.3059 28.5269C90.1296 27.7022 90.1296 26.3651 89.3059 25.5407Z" fill="#F8F8F8"/>
<path d="M47.2174 92.6589C46.0524 92.6589 45.108 93.6044 45.108 94.7707V103.802C45.108 104.969 46.0524 105.914 47.2174 105.914C48.3823 105.914 49.3268 104.969 49.3268 103.802V94.7707C49.3268 93.6047 48.3823 92.6589 47.2174 92.6589Z" fill="#F8F8F8"/>
<path d="M96.8361 92.6589C95.6711 92.6589 94.7267 93.6044 94.7267 94.7707V103.802C94.7267 104.969 95.6711 105.914 96.8361 105.914C98.001 105.914 98.9454 104.969 98.9454 103.802V94.7707C98.9454 93.6047 98.001 92.6589 96.8361 92.6589Z" fill="#F8F8F8"/>
</g>
<defs>
<clipPath id="clip0_7_180">
<rect width="144" height="106" fill="white"/>
</clipPath>
</defs>
</svg>
